<svg xmlns="http://www.w3.org/2000/svg" viewBox="0 0 900 140" fill="none" stroke="#171717" stroke-width="4" stroke-linecap="round" stroke-linejoin="round">
  <!-- 01 Origins -->
  <circle cx="70" cy="70" r="46" />

  <!-- 02 Transformations -->
  <g transform="translate(250,70)">
    <ellipse cx="-16" cy="0" rx="30" ry="46" />
    <ellipse cx="0" cy="0" rx="30" ry="46" />
    <ellipse cx="16" cy="0" rx="30" ry="46" />
  </g>

  <!-- 03 Tech & Beyond -->
  <g transform="translate(430,70)">
    <circle cx="0" cy="0" r="7" fill="#171717" stroke="none" />
    <ellipse cx="0" cy="0" rx="46" ry="18" />
    <ellipse cx="0" cy="0" rx="46" ry="18" transform="rotate(60)" />
    <ellipse cx="0" cy="0" rx="46" ry="18" transform="rotate(120)" />
  </g>

  <!-- 04 Challenges -->
  <g transform="translate(610,70)">
    <circle cx="0" cy="0" r="46" />
    <path d="M 0 -32 A 32 32 0 1 1 -22.6 -22.6" />
    <path d="M 0 -18 A 18 18 0 1 0 12.7 -12.7" />
    <path d="M 0 -18 L 0 -3" />
    <path d="M -22.6 22.6 L -12 12" />
  </g>

  <!-- 05 Futures -->
  <g transform="translate(790,70)">
    <circle cx="0" cy="0" r="46" />
    <circle cx="0" cy="0" r="24" />
    <circle cx="0" cy="-46" r="6" fill="#171717" stroke="none" />
    <circle cx="39.8" cy="23" r="6" fill="#171717" stroke="none" />
    <circle cx="-39.8" cy="23" r="6" fill="#171717" stroke="none" />
  </g>
</svg>
